<svg xmlns="http://www.w3.org/2000/svg" viewBox="0 0 32 32">
  <defs>
    <radialGradient id="glow" cx="50%" cy="50%" r="50%">
      <stop offset="0%" stop-color="#8b5cf6" stop-opacity="0.4"/>
      <stop offset="60%" stop-color="#06b6d4" stop-opacity="0.2"/>
      <stop offset="100%" stop-color="transparent"/>
    </radialGradient>
  </defs>
  <circle cx="16" cy="16" r="14" fill="url(#glow)"/>
  <!-- Outer ring -->
  <circle cx="16" cy="4" r="1.5" fill="#8b5cf6"/>
  <circle cx="24" cy="7" r="1.5" fill="#9d6ff7"/>
  <circle cx="28" cy="14" r="1.5" fill="#a78bfa"/>
  <circle cx="26" cy="22" r="1.5" fill="#22d3ee"/>
  <circle cx="20" cy="28" r="1.5" fill="#06b6d4"/>
  <circle cx="12" cy="28" r="1.5" fill="#14b8a6"/>
  <circle cx="6" cy="22" r="1.5" fill="#06b6d4"/>
  <circle cx="4" cy="14" r="1.5" fill="#22d3ee"/>
  <circle cx="8" cy="7" r="1.5" fill="#a78bfa"/>
  <!-- Middle ring -->
  <circle cx="16" cy="8" r="1.3" fill="#a78bfa"/>
  <circle cx="22" cy="12" r="1.3" fill="#8b5cf6"/>
  <circle cx="22" cy="20" r="1.3" fill="#06b6d4"/>
  <circle cx="16" cy="24" r="1.3" fill="#22d3ee"/>
  <circle cx="10" cy="20" r="1.3" fill="#14b8a6"/>
  <circle cx="10" cy="12" r="1.3" fill="#9d6ff7"/>
  <!-- Inner ring -->
  <circle cx="16" cy="12" r="1.2" fill="#c4b5fd"/>
  <circle cx="20" cy="16" r="1.2" fill="#a78bfa"/>
  <circle cx="16" cy="20" r="1.2" fill="#67e8f9"/>
  <circle cx="12" cy="16" r="1.2" fill="#22d3ee"/>
  <!-- Center -->
  <circle cx="16" cy="16" r="1.4" fill="#e9d5ff"/>
</svg>
