<svg xmlns="http://www.w3.org/2000/svg" viewBox="0 0 32 32">
  <defs>
    <radialGradient id="glow" cx="50%" cy="50%" r="50%">
      <stop offset="0%" stop-color="#8b5cf6" stop-opacity="0.4"/>
      <stop offset="60%" stop-color="#06b6d4" stop-opacity="0.2"/>
      <stop offset="100%" stop-color="transparent"/>
    </radialGradient>
  </defs>
  <circle cx="16" cy="16" r="16" fill="#0a0a0f"/>
  <circle cx="16" cy="16" r="14" fill="url(#glow)"/>
  <!-- Outer ring - yellow/orange -->
  <circle cx="16" cy="4" r="1.5" fill="#ffff00"/>
  <circle cx="24" cy="7" r="1.5" fill="#ffdd00"/>
  <circle cx="28" cy="14" r="1.5" fill="#ffaa00"/>
  <circle cx="26" cy="22" r="1.5" fill="#ff9500"/>
  <circle cx="20" cy="28" r="1.5" fill="#ffaa00"/>
  <circle cx="12" cy="28" r="1.5" fill="#ffdd00"/>
  <circle cx="6" cy="22" r="1.5" fill="#ff9500"/>
  <circle cx="4" cy="14" r="1.5" fill="#ffaa00"/>
  <circle cx="8" cy="7" r="1.5" fill="#ffdd00"/>
  <!-- Middle ring - transition -->
  <circle cx="16" cy="8" r="1.3" fill="#ffee55"/>
  <circle cx="22" cy="12" r="1.3" fill="#00ffd5"/>
  <circle cx="22" cy="20" r="1.3" fill="#00ffdd"/>
  <circle cx="16" cy="24" r="1.3" fill="#ffee55"/>
  <circle cx="10" cy="20" r="1.3" fill="#00ffdd"/>
  <circle cx="10" cy="12" r="1.3" fill="#00ffd5"/>
  <!-- Inner ring - cyan -->
  <circle cx="16" cy="12" r="1.2" fill="#00ffff"/>
  <circle cx="20" cy="16" r="1.2" fill="#00ffff"/>
  <circle cx="16" cy="20" r="1.2" fill="#00ffff"/>
  <circle cx="12" cy="16" r="1.2" fill="#00ffff"/>
  <!-- Center - bright cyan -->
  <circle cx="16" cy="16" r="1.4" fill="#80ffff"/>
</svg>
