<svg xmlns="http://www.w3.org/2000/svg" viewBox="0 0 32 32">
  <defs>
    <radialGradient id="glow" cx="50%" cy="50%" r="50%">
      <stop offset="0%" stop-color="#8b5cf6" stop-opacity="0.4"/>
      <stop offset="60%" stop-color="#06b6d4" stop-opacity="0.2"/>
      <stop offset="100%" stop-color="transparent"/>
    </radialGradient>
  </defs>
  <rect width="32" height="32" rx="6" ry="6" fill="#0a0a0f"/>
  <circle cx="16" cy="16" r="14" fill="url(#glow)"/>
  <!-- Outer ring -->
  <circle cx="16" cy="4" r="1.5" fill="#bf5fff"/>
  <circle cx="24" cy="7" r="1.5" fill="#d866ff"/>
  <circle cx="28" cy="14" r="1.5" fill="#00ffff"/>
  <circle cx="26" cy="22" r="1.5" fill="#00ffd5"/>
  <circle cx="20" cy="28" r="1.5" fill="#00e5ff"/>
  <circle cx="12" cy="28" r="1.5" fill="#00ffaa"/>
  <circle cx="6" cy="22" r="1.5" fill="#00e5ff"/>
  <circle cx="4" cy="14" r="1.5" fill="#00ffff"/>
  <circle cx="8" cy="7" r="1.5" fill="#d866ff"/>
  <!-- Middle ring -->
  <circle cx="16" cy="8" r="1.3" fill="#e066ff"/>
  <circle cx="22" cy="12" r="1.3" fill="#bf5fff"/>
  <circle cx="22" cy="20" r="1.3" fill="#00ffdd"/>
  <circle cx="16" cy="24" r="1.3" fill="#00ffff"/>
  <circle cx="10" cy="20" r="1.3" fill="#00ffcc"/>
  <circle cx="10" cy="12" r="1.3" fill="#d866ff"/>
  <!-- Inner ring -->
  <circle cx="16" cy="12" r="1.2" fill="#ff80ff"/>
  <circle cx="20" cy="16" r="1.2" fill="#e066ff"/>
  <circle cx="16" cy="20" r="1.2" fill="#80ffff"/>
  <circle cx="12" cy="16" r="1.2" fill="#00ffff"/>
  <!-- Center -->
  <circle cx="16" cy="16" r="1.4" fill="#ffffff"/>
</svg>
